<svg xmlns="http://www.w3.org/2000/svg" width="33" height="32" viewBox="0 0 33 32">
    <g fill="none" fill-rule="evenodd" stroke-width="2">
        <path fill="#F8E71C" fill-rule="nonzero" stroke="#090000" stroke-linecap="round" stroke-linejoin="round" d="M24.798 19.307a.913.913 0 0 0-.23.813l2.105 10.198-9.311-4.518a.895.895 0 0 0-.839.03L7.553 31l1.385-10.322a.913.913 0 0 0-.288-.795L1 12.88l10.168-1.862a.902.902 0 0 0 .66-.52L16.071 1l4.898 9.172c.14.263.401.44.696.472l10.273 1.133-7.14 7.53z"/>
        <path fill="#DFD883" stroke="#DFD883" stroke-linecap="square" d="M9.442 13.351c.019 1.697.584 3.536 1.696 5.516a24.1 24.1 0 0 0 4.189 5.439l-5.273 2.985.819-7.914-5.652-5.26 4.22-.766z"/>
    </g>
</svg>
